# xmcd
#
# Track frame offsets:
#	182
#	15212
#	28262
#	45322
#	62390
#	82887
#	98300
#	110097
#	123270
#	140195
#
# Disc length: 2090
#
# Revision: 2
# Processed by: cddbd v1.5.1PL0 Copyright (c) Steve Scherf et al.
# Submitted via: audiograbber 1.81.02
# Normalized: r1:DSETVAR1
#
DISCID=7008280a
DTITLE=Various Artist - 90's Country Hits
DYEAR=2000
DGENRE=Country
TTITLE0=Alabama - Down Home
TTITLE1=John Anderson - I've Got It Made
TTITLE2=Lorrie Morgan - Half Enough
TTITLE3=Doug Supernaw - I Don't Call Him Daddy
TTITLE4=Lari White - Now I Know
TTITLE5=Lone Star - Tequila Talkin'
TTITLE6=Martina McBride - My Baby Loves Me
TTITLE7=Aaron Tippin - I Wouldn't Have It Any Other Way
TTITLE8=Restless Heart - When She Cries
TTITLE9=Shenandoah - I Want to Be Loved Like That
EXTD=
EXTT0=
EXTT1=
EXTT2=
EXTT3=
EXTT4=
EXTT5=
EXTT6=
EXTT7=
EXTT8=
EXTT9=
PLAYORDER=
